<svg xmlns="http://www.w3.org/2000/svg" id="Layer_1" data-name="Layer 1" viewBox="0 0 512 512"><defs><style>.cls-1{fill:#009688}.cls-2{fill:#444f60}.cls-3{fill:#4bb7aa}</style></defs><path d="M222.21,31.07l42.41,25.68,61.45-24.37S298.9,13.54,267.8,10.19C233.58,6.5,216,17.11,216,17.11Z" class="cls-1"/><rect width="111.8" height="23.08" x="200.1" y="97.36" class="cls-2" rx="9.59"/><path d="M214.13,93.4h83.93l36.26-47.89c1.27-5-12.28-25.49-31.18-12.26-22.38,15.68-41,26.39-65.26,2.12,0,0-24.57-31-49.15-20.88-3.61,1.49-9.48,5.62-13.67,10.17a12.52,12.52,0,0,0-.76,16Z" class="cls-3"/><path d="M300.74,124.39H211.26C179.07,198.19,58.92,299.46,61.07,367.74,65.72,515.78,256,502.27,256,502.27s190.28,13.51,194.93-134.53C453.08,299.46,332.93,198.19,300.74,124.39Z" class="cls-1"/></svg>